<?xml version="1.0" standalone="no"?>
<!DOCTYPE svg PUBLIC "-//W3C//DTD SVG 20010904//EN"
 "http://www.w3.org/TR/2001/REC-SVG-20010904/DTD/svg10.dtd">
<svg version="1.0" xmlns="http://www.w3.org/2000/svg"
 width="1162.000000pt" height="1162.000000pt" viewBox="0 0 1162.000000 1162.000000"
 preserveAspectRatio="xMidYMid meet">
<metadata>
Created by potrace 1.14, written by Peter Selinger 2001-2017
</metadata>
<g transform="translate(0.000000,1162.000000) scale(0.100000,-0.100000)"
fill="#000000" stroke="none">
<path d="M5558 9975 c-2 -1 -52 -5 -113 -9 -60 -3 -121 -8 -135 -10 -14 -3
-52 -8 -85 -11 -33 -4 -71 -9 -85 -10 -14 -2 -41 -6 -60 -9 -19 -4 -48 -9 -65
-12 -16 -3 -37 -7 -45 -9 -8 -2 -31 -6 -50 -9 -60 -9 -208 -45 -315 -76 -38
-11 -78 -22 -87 -25 -9 -2 -58 -18 -110 -35 -529 -181 -1016 -464 -1433 -834
-136 -121 -316 -306 -410 -420 -22 -27 -45 -54 -50 -60 -14 -14 -146 -187
-162 -212 -7 -11 -29 -41 -48 -69 -186 -261 -392 -670 -505 -1003 -57 -166
-132 -453 -155 -592 -3 -19 -7 -46 -10 -60 -10 -55 -30 -196 -40 -290 -29
-266 -20 -735 20 -990 3 -14 7 -43 10 -65 5 -33 41 -216 61 -313 51 -248 188
-623 333 -912 104 -206 290 -509 388 -630 6 -8 42 -53 79 -100 170 -214 369
-416 606 -616 13 -12 56 -45 94 -74 38 -30 75 -60 82 -67 7 -7 17 -13 22 -13
5 0 15 -6 22 -13 24 -25 222 -154 343 -224 123 -71 289 -156 405 -207 36 -15
83 -36 105 -46 22 -9 51 -21 65 -25 14 -4 39 -13 55 -20 37 -16 179 -65 220
-76 17 -4 68 -19 115 -33 79 -23 317 -79 385 -89 17 -3 59 -10 95 -16 36 -5
92 -13 125 -17 33 -3 69 -8 80 -10 125 -24 719 -23 890 1 309 44 307 43 385
61 36 9 74 17 85 18 45 7 298 77 406 114 725 246 1351 670 1843 1247 57 66
134 163 173 215 77 105 213 306 213 315 0 4 14 27 31 51 41 60 207 388 248
489 18 44 38 94 46 110 29 68 129 366 140 422 2 10 12 54 24 99 23 90 49 211
57 264 3 19 7 42 9 50 2 8 7 38 10 65 3 28 8 60 10 72 8 35 19 147 31 303 4
56 4 414 -1 495 -5 96 -26 298 -40 385 -3 14 -7 42 -10 64 -4 21 -9 48 -11 60
-2 11 -7 37 -10 56 -5 29 -18 86 -49 210 -2 8 -8 35 -14 60 -61 259 -269 762
-418 1007 -21 35 -58 96 -82 135 -24 40 -57 89 -72 109 -16 20 -29 40 -29 44
0 10 -170 230 -255 330 -143 168 -378 398 -524 515 -25 19 -49 40 -55 45 -6 6
-54 42 -106 81 -312 232 -671 428 -1030 561 -127 47 -360 119 -450 138 -8 2
-53 13 -100 24 -47 11 -105 23 -130 26 -24 4 -47 8 -50 10 -3 1 -27 6 -55 9
-27 4 -75 11 -105 16 -30 5 -87 12 -126 15 -39 3 -86 8 -105 11 -35 5 -516 14
-521 9z"/>
<path d="M10720 6228 c0 -13 -4 -63 -8 -113 -14 -181 -4 -736 14 -754 2 -2 4
197 4 442 0 246 -2 447 -5 447 -3 0 -5 -10 -5 -22z"/>
</g>
</svg>
